<svg width="24" height="25" viewBox="0 0 24 25" fill="none" xmlns="http://www.w3.org/2000/svg">
<path d="M0 2.5C0 1.39543 0.895431 0.5 2 0.5H8C9.10457 0.5 10 1.39543 10 2.5V10.9348H2C0.89543 10.9348 0 10.0394 0 8.93478V2.5Z" fill="#24C1FF"/>
<path d="M14 2.5C14 1.39543 14.8954 0.5 16 0.5H22C23.1046 0.5 24 1.39543 24 2.5V8.93478C24 10.0394 23.1046 10.9348 22 10.9348H14V2.5Z" fill="#24C1FF"/>
<path d="M0 16.0652C0 14.9606 0.895431 14.0652 2 14.0652H10V22.5C10 23.6046 9.10457 24.5 8 24.5H2C0.89543 24.5 0 23.6046 0 22.5V16.0652Z" fill="#24C1FF"/>
<path d="M14 14.0652H22C23.1046 14.0652 24 14.9606 24 16.0652V22.5C24 23.6046 23.1046 24.5 22 24.5H16C14.8954 24.5 14 23.6046 14 22.5V14.0652Z" fill="#24C1FF"/>
</svg>
